<mxfile host="app.diagrams.net" agent="Mozilla/5.0 (Windows NT 10.0; Win64; x64) AppleWebKit/537.36 (KHTML, like Gecko) Chrome/137.0.0.0 Safari/537.36 Edg/137.0.0.0" version="27.1.4">
  <diagram name="Page-1" id="jSAO5qtailuaTurjB3Ll">
    <mxGraphModel dx="1034" dy="570" grid="1" gridSize="10" guides="1" tooltips="1" connect="1" arrows="1" fold="1" page="1" pageScale="1" pageWidth="850" pageHeight="1100" math="0" shadow="0">
      <root>
        <mxCell id="0" />
        <mxCell id="1" parent="0" />
        <mxCell id="OUe5JrY_zWwVkbSHacDk-3" value="" style="edgeStyle=orthogonalEdgeStyle;rounded=0;orthogonalLoop=1;jettySize=auto;html=1;" edge="1" parent="1" source="OUe5JrY_zWwVkbSHacDk-1" target="OUe5JrY_zWwVkbSHacDk-2">
          <mxGeometry relative="1" as="geometry" />
        </mxCell>
        <mxCell id="OUe5JrY_zWwVkbSHacDk-1" value="Start" style="ellipse;whiteSpace=wrap;html=1;fontSize=20;fillColor=#fad9d5;strokeColor=#ae4132;" vertex="1" parent="1">
          <mxGeometry x="360" width="120" height="80" as="geometry" />
        </mxCell>
        <mxCell id="OUe5JrY_zWwVkbSHacDk-5" value="" style="edgeStyle=orthogonalEdgeStyle;rounded=0;orthogonalLoop=1;jettySize=auto;html=1;" edge="1" parent="1" source="OUe5JrY_zWwVkbSHacDk-2" target="OUe5JrY_zWwVkbSHacDk-4">
          <mxGeometry relative="1" as="geometry" />
        </mxCell>
        <mxCell id="OUe5JrY_zWwVkbSHacDk-2" value="&lt;font style=&quot;font-size: 18px;&quot;&gt;Wake up&lt;/font&gt;" style="whiteSpace=wrap;html=1;fillColor=#fad7ac;strokeColor=#b46504;" vertex="1" parent="1">
          <mxGeometry x="360" y="100" width="120" height="30" as="geometry" />
        </mxCell>
        <mxCell id="OUe5JrY_zWwVkbSHacDk-7" value="" style="edgeStyle=orthogonalEdgeStyle;rounded=0;orthogonalLoop=1;jettySize=auto;html=1;" edge="1" parent="1" source="OUe5JrY_zWwVkbSHacDk-4" target="OUe5JrY_zWwVkbSHacDk-6">
          <mxGeometry relative="1" as="geometry" />
        </mxCell>
        <mxCell id="OUe5JrY_zWwVkbSHacDk-4" value="&lt;span style=&quot;font-size: 18px;&quot;&gt;Offer Fazr prayer&lt;/span&gt;" style="whiteSpace=wrap;html=1;fillColor=#fad7ac;strokeColor=#b46504;" vertex="1" parent="1">
          <mxGeometry x="340" y="150" width="160" height="30" as="geometry" />
        </mxCell>
        <mxCell id="OUe5JrY_zWwVkbSHacDk-11" value="" style="edgeStyle=orthogonalEdgeStyle;rounded=0;orthogonalLoop=1;jettySize=auto;html=1;" edge="1" parent="1" source="OUe5JrY_zWwVkbSHacDk-6" target="OUe5JrY_zWwVkbSHacDk-10">
          <mxGeometry relative="1" as="geometry" />
        </mxCell>
        <mxCell id="OUe5JrY_zWwVkbSHacDk-13" value="" style="edgeStyle=orthogonalEdgeStyle;rounded=0;orthogonalLoop=1;jettySize=auto;html=1;" edge="1" parent="1" source="OUe5JrY_zWwVkbSHacDk-6" target="OUe5JrY_zWwVkbSHacDk-12">
          <mxGeometry relative="1" as="geometry" />
        </mxCell>
        <mxCell id="OUe5JrY_zWwVkbSHacDk-6" value="Check if there is School or not" style="rhombus;whiteSpace=wrap;html=1;fillColor=#f8cecc;strokeColor=#b85450;gradientColor=#ea6b66;" vertex="1" parent="1">
          <mxGeometry x="330" y="200" width="180" height="90" as="geometry" />
        </mxCell>
        <mxCell id="OUe5JrY_zWwVkbSHacDk-20" value="" style="edgeStyle=orthogonalEdgeStyle;rounded=0;orthogonalLoop=1;jettySize=auto;html=1;" edge="1" parent="1" source="OUe5JrY_zWwVkbSHacDk-10" target="OUe5JrY_zWwVkbSHacDk-19">
          <mxGeometry relative="1" as="geometry" />
        </mxCell>
        <mxCell id="OUe5JrY_zWwVkbSHacDk-10" value="Take some more rest" style="rounded=1;whiteSpace=wrap;html=1;fillColor=#ffcc99;strokeColor=#36393d;" vertex="1" parent="1">
          <mxGeometry x="120" y="227.5" width="120" height="35" as="geometry" />
        </mxCell>
        <mxCell id="OUe5JrY_zWwVkbSHacDk-22" value="" style="edgeStyle=orthogonalEdgeStyle;rounded=0;orthogonalLoop=1;jettySize=auto;html=1;" edge="1" parent="1" source="OUe5JrY_zWwVkbSHacDk-12" target="OUe5JrY_zWwVkbSHacDk-21">
          <mxGeometry relative="1" as="geometry" />
        </mxCell>
        <mxCell id="OUe5JrY_zWwVkbSHacDk-12" value="Start study" style="rounded=1;whiteSpace=wrap;html=1;fillColor=#ffcc99;strokeColor=#36393d;" vertex="1" parent="1">
          <mxGeometry x="620" y="227.5" width="120" height="35" as="geometry" />
        </mxCell>
        <mxCell id="OUe5JrY_zWwVkbSHacDk-14" style="edgeStyle=orthogonalEdgeStyle;rounded=0;orthogonalLoop=1;jettySize=auto;html=1;exitX=0.5;exitY=1;exitDx=0;exitDy=0;" edge="1" parent="1" source="OUe5JrY_zWwVkbSHacDk-10" target="OUe5JrY_zWwVkbSHacDk-10">
          <mxGeometry relative="1" as="geometry" />
        </mxCell>
        <mxCell id="OUe5JrY_zWwVkbSHacDk-17" value="Yes" style="text;html=1;align=center;verticalAlign=middle;whiteSpace=wrap;rounded=0;" vertex="1" parent="1">
          <mxGeometry x="260" y="220" width="60" height="30" as="geometry" />
        </mxCell>
        <mxCell id="OUe5JrY_zWwVkbSHacDk-18" value="No" style="text;html=1;align=center;verticalAlign=middle;whiteSpace=wrap;rounded=0;" vertex="1" parent="1">
          <mxGeometry x="530" y="220" width="60" height="30" as="geometry" />
        </mxCell>
        <mxCell id="OUe5JrY_zWwVkbSHacDk-24" value="" style="edgeStyle=orthogonalEdgeStyle;rounded=0;orthogonalLoop=1;jettySize=auto;html=1;" edge="1" parent="1" source="OUe5JrY_zWwVkbSHacDk-19" target="OUe5JrY_zWwVkbSHacDk-23">
          <mxGeometry relative="1" as="geometry" />
        </mxCell>
        <mxCell id="OUe5JrY_zWwVkbSHacDk-19" value="Get Fresh &amp;amp; wash up" style="rounded=1;whiteSpace=wrap;html=1;fillColor=#ffcc99;strokeColor=#36393d;" vertex="1" parent="1">
          <mxGeometry x="120" y="280" width="120" height="35" as="geometry" />
        </mxCell>
        <mxCell id="OUe5JrY_zWwVkbSHacDk-33" value="" style="edgeStyle=orthogonalEdgeStyle;rounded=0;orthogonalLoop=1;jettySize=auto;html=1;" edge="1" parent="1" source="OUe5JrY_zWwVkbSHacDk-21" target="OUe5JrY_zWwVkbSHacDk-32">
          <mxGeometry relative="1" as="geometry" />
        </mxCell>
        <mxCell id="OUe5JrY_zWwVkbSHacDk-34" value="" style="edgeStyle=orthogonalEdgeStyle;rounded=0;orthogonalLoop=1;jettySize=auto;html=1;" edge="1" parent="1" source="OUe5JrY_zWwVkbSHacDk-21" target="OUe5JrY_zWwVkbSHacDk-32">
          <mxGeometry relative="1" as="geometry" />
        </mxCell>
        <mxCell id="OUe5JrY_zWwVkbSHacDk-21" value="Divide the study plan &amp;amp; time according to subject" style="rounded=1;whiteSpace=wrap;html=1;fillColor=#ffcc99;strokeColor=#36393d;" vertex="1" parent="1">
          <mxGeometry x="620" y="280" width="120" height="40" as="geometry" />
        </mxCell>
        <mxCell id="OUe5JrY_zWwVkbSHacDk-29" value="" style="edgeStyle=orthogonalEdgeStyle;rounded=0;orthogonalLoop=1;jettySize=auto;html=1;" edge="1" parent="1" source="OUe5JrY_zWwVkbSHacDk-23" target="OUe5JrY_zWwVkbSHacDk-28">
          <mxGeometry relative="1" as="geometry" />
        </mxCell>
        <mxCell id="OUe5JrY_zWwVkbSHacDk-23" value="Get ready for school" style="rounded=1;whiteSpace=wrap;html=1;fillColor=#ffcc99;strokeColor=#36393d;" vertex="1" parent="1">
          <mxGeometry x="120" y="330" width="120" height="35" as="geometry" />
        </mxCell>
        <mxCell id="OUe5JrY_zWwVkbSHacDk-31" value="" style="edgeStyle=orthogonalEdgeStyle;rounded=0;orthogonalLoop=1;jettySize=auto;html=1;" edge="1" parent="1" source="OUe5JrY_zWwVkbSHacDk-28" target="OUe5JrY_zWwVkbSHacDk-30">
          <mxGeometry relative="1" as="geometry" />
        </mxCell>
        <mxCell id="OUe5JrY_zWwVkbSHacDk-28" value="Take breakfast &amp;amp; start for school" style="rounded=1;whiteSpace=wrap;html=1;fillColor=#ffcc99;strokeColor=#36393d;" vertex="1" parent="1">
          <mxGeometry x="120" y="380" width="120" height="35" as="geometry" />
        </mxCell>
        <mxCell id="OUe5JrY_zWwVkbSHacDk-52" value="" style="edgeStyle=orthogonalEdgeStyle;rounded=0;orthogonalLoop=1;jettySize=auto;html=1;" edge="1" parent="1" source="OUe5JrY_zWwVkbSHacDk-30" target="OUe5JrY_zWwVkbSHacDk-51">
          <mxGeometry relative="1" as="geometry" />
        </mxCell>
        <mxCell id="OUe5JrY_zWwVkbSHacDk-30" value="School time" style="rounded=1;whiteSpace=wrap;html=1;fillColor=#ffcc99;strokeColor=#36393d;" vertex="1" parent="1">
          <mxGeometry x="120" y="430" width="120" height="35" as="geometry" />
        </mxCell>
        <mxCell id="OUe5JrY_zWwVkbSHacDk-36" value="" style="edgeStyle=orthogonalEdgeStyle;rounded=0;orthogonalLoop=1;jettySize=auto;html=1;" edge="1" parent="1" source="OUe5JrY_zWwVkbSHacDk-32" target="OUe5JrY_zWwVkbSHacDk-35">
          <mxGeometry relative="1" as="geometry" />
        </mxCell>
        <mxCell id="OUe5JrY_zWwVkbSHacDk-32" value="Take breakfast" style="rounded=1;whiteSpace=wrap;html=1;fillColor=#ffcc99;strokeColor=#36393d;" vertex="1" parent="1">
          <mxGeometry x="620" y="340" width="120" height="40" as="geometry" />
        </mxCell>
        <mxCell id="OUe5JrY_zWwVkbSHacDk-38" value="" style="edgeStyle=orthogonalEdgeStyle;rounded=0;orthogonalLoop=1;jettySize=auto;html=1;" edge="1" parent="1" source="OUe5JrY_zWwVkbSHacDk-35" target="OUe5JrY_zWwVkbSHacDk-37">
          <mxGeometry relative="1" as="geometry" />
        </mxCell>
        <mxCell id="OUe5JrY_zWwVkbSHacDk-35" value="Take a short nap" style="rounded=1;whiteSpace=wrap;html=1;fillColor=#ffcc99;strokeColor=#36393d;" vertex="1" parent="1">
          <mxGeometry x="620" y="400" width="120" height="40" as="geometry" />
        </mxCell>
        <mxCell id="OUe5JrY_zWwVkbSHacDk-42" value="" style="edgeStyle=orthogonalEdgeStyle;rounded=0;orthogonalLoop=1;jettySize=auto;html=1;" edge="1" parent="1" source="OUe5JrY_zWwVkbSHacDk-37" target="OUe5JrY_zWwVkbSHacDk-41">
          <mxGeometry relative="1" as="geometry" />
        </mxCell>
        <mxCell id="OUe5JrY_zWwVkbSHacDk-37" value="Offer Zuhr prayer" style="rounded=1;whiteSpace=wrap;html=1;fillColor=#ffcc99;strokeColor=#36393d;" vertex="1" parent="1">
          <mxGeometry x="360" y="477.5" width="120" height="40" as="geometry" />
        </mxCell>
        <mxCell id="OUe5JrY_zWwVkbSHacDk-46" value="" style="edgeStyle=orthogonalEdgeStyle;rounded=0;orthogonalLoop=1;jettySize=auto;html=1;" edge="1" parent="1" source="OUe5JrY_zWwVkbSHacDk-41" target="OUe5JrY_zWwVkbSHacDk-45">
          <mxGeometry relative="1" as="geometry" />
        </mxCell>
        <mxCell id="OUe5JrY_zWwVkbSHacDk-57" value="" style="edgeStyle=orthogonalEdgeStyle;rounded=0;orthogonalLoop=1;jettySize=auto;html=1;" edge="1" parent="1" source="OUe5JrY_zWwVkbSHacDk-41" target="OUe5JrY_zWwVkbSHacDk-43">
          <mxGeometry relative="1" as="geometry">
            <Array as="points">
              <mxPoint x="420" y="650" />
              <mxPoint x="340" y="650" />
            </Array>
          </mxGeometry>
        </mxCell>
        <mxCell id="OUe5JrY_zWwVkbSHacDk-41" value="Weather to take shower or not" style="rhombus;whiteSpace=wrap;html=1;fillColor=#e6d0de;strokeColor=#996185;rounded=1;gradientColor=#d5739d;" vertex="1" parent="1">
          <mxGeometry x="330" y="550" width="180" height="90" as="geometry" />
        </mxCell>
        <mxCell id="OUe5JrY_zWwVkbSHacDk-61" value="" style="edgeStyle=orthogonalEdgeStyle;rounded=0;orthogonalLoop=1;jettySize=auto;html=1;" edge="1" parent="1" source="OUe5JrY_zWwVkbSHacDk-43" target="OUe5JrY_zWwVkbSHacDk-60">
          <mxGeometry relative="1" as="geometry" />
        </mxCell>
        <mxCell id="OUe5JrY_zWwVkbSHacDk-43" value="Take lunch" style="whiteSpace=wrap;html=1;fillColor=#ffcc99;strokeColor=#36393d;rounded=1;" vertex="1" parent="1">
          <mxGeometry x="280" y="680" width="120" height="25" as="geometry" />
        </mxCell>
        <mxCell id="OUe5JrY_zWwVkbSHacDk-48" value="" style="edgeStyle=orthogonalEdgeStyle;rounded=0;orthogonalLoop=1;jettySize=auto;html=1;entryX=0.5;entryY=0;entryDx=0;entryDy=0;" edge="1" parent="1" target="OUe5JrY_zWwVkbSHacDk-43">
          <mxGeometry relative="1" as="geometry">
            <mxPoint x="230" y="610" as="sourcePoint" />
            <mxPoint x="340" y="662.5" as="targetPoint" />
            <Array as="points">
              <mxPoint x="230" y="650" />
              <mxPoint x="340" y="650" />
            </Array>
          </mxGeometry>
        </mxCell>
        <mxCell id="OUe5JrY_zWwVkbSHacDk-45" value="Take shower" style="whiteSpace=wrap;html=1;fillColor=#ffcc99;strokeColor=#36393d;rounded=1;" vertex="1" parent="1">
          <mxGeometry x="170" y="582.5" width="120" height="25" as="geometry" />
        </mxCell>
        <mxCell id="OUe5JrY_zWwVkbSHacDk-49" value="Yes" style="text;html=1;align=center;verticalAlign=middle;whiteSpace=wrap;rounded=0;" vertex="1" parent="1">
          <mxGeometry x="290" y="570" width="60" height="30" as="geometry" />
        </mxCell>
        <mxCell id="OUe5JrY_zWwVkbSHacDk-50" value="No" style="text;html=1;align=center;verticalAlign=middle;whiteSpace=wrap;rounded=0;" vertex="1" parent="1">
          <mxGeometry x="350" y="630" width="60" height="30" as="geometry" />
        </mxCell>
        <mxCell id="OUe5JrY_zWwVkbSHacDk-55" value="" style="edgeStyle=orthogonalEdgeStyle;rounded=0;orthogonalLoop=1;jettySize=auto;html=1;" edge="1" parent="1" source="OUe5JrY_zWwVkbSHacDk-51" target="OUe5JrY_zWwVkbSHacDk-37">
          <mxGeometry relative="1" as="geometry" />
        </mxCell>
        <mxCell id="OUe5JrY_zWwVkbSHacDk-51" value="Return from school &amp;amp; freshen up" style="rounded=1;whiteSpace=wrap;html=1;fillColor=#ffcc99;strokeColor=#36393d;" vertex="1" parent="1">
          <mxGeometry x="120" y="480" width="120" height="35" as="geometry" />
        </mxCell>
        <mxCell id="OUe5JrY_zWwVkbSHacDk-63" value="" style="edgeStyle=orthogonalEdgeStyle;rounded=0;orthogonalLoop=1;jettySize=auto;html=1;" edge="1" parent="1" source="OUe5JrY_zWwVkbSHacDk-60" target="OUe5JrY_zWwVkbSHacDk-62">
          <mxGeometry relative="1" as="geometry" />
        </mxCell>
        <mxCell id="OUe5JrY_zWwVkbSHacDk-60" value="Do some recreational activities" style="whiteSpace=wrap;html=1;fillColor=#ffcc99;strokeColor=#36393d;rounded=1;" vertex="1" parent="1">
          <mxGeometry x="280" y="720" width="120" height="25" as="geometry" />
        </mxCell>
        <mxCell id="OUe5JrY_zWwVkbSHacDk-65" value="" style="edgeStyle=orthogonalEdgeStyle;rounded=0;orthogonalLoop=1;jettySize=auto;html=1;" edge="1" parent="1" source="OUe5JrY_zWwVkbSHacDk-62" target="OUe5JrY_zWwVkbSHacDk-64">
          <mxGeometry relative="1" as="geometry" />
        </mxCell>
        <mxCell id="OUe5JrY_zWwVkbSHacDk-62" value="Offer Asr &amp;amp; Maghrib prayer" style="whiteSpace=wrap;html=1;fillColor=#ffcc99;strokeColor=#36393d;rounded=1;" vertex="1" parent="1">
          <mxGeometry x="280" y="760" width="120" height="25" as="geometry" />
        </mxCell>
        <mxCell id="OUe5JrY_zWwVkbSHacDk-71" value="" style="edgeStyle=orthogonalEdgeStyle;rounded=0;orthogonalLoop=1;jettySize=auto;html=1;" edge="1" parent="1" source="OUe5JrY_zWwVkbSHacDk-64" target="OUe5JrY_zWwVkbSHacDk-70">
          <mxGeometry relative="1" as="geometry" />
        </mxCell>
        <mxCell id="OUe5JrY_zWwVkbSHacDk-64" value="Start studying" style="whiteSpace=wrap;html=1;fillColor=#ffcc99;strokeColor=#36393d;rounded=1;" vertex="1" parent="1">
          <mxGeometry x="280" y="800" width="120" height="25" as="geometry" />
        </mxCell>
        <mxCell id="OUe5JrY_zWwVkbSHacDk-75" value="" style="edgeStyle=orthogonalEdgeStyle;rounded=0;orthogonalLoop=1;jettySize=auto;html=1;" edge="1" parent="1" source="OUe5JrY_zWwVkbSHacDk-70" target="OUe5JrY_zWwVkbSHacDk-74">
          <mxGeometry relative="1" as="geometry" />
        </mxCell>
        <mxCell id="OUe5JrY_zWwVkbSHacDk-79" value="" style="edgeStyle=orthogonalEdgeStyle;rounded=0;orthogonalLoop=1;jettySize=auto;html=1;" edge="1" parent="1" source="OUe5JrY_zWwVkbSHacDk-70" target="OUe5JrY_zWwVkbSHacDk-78">
          <mxGeometry relative="1" as="geometry" />
        </mxCell>
        <mxCell id="OUe5JrY_zWwVkbSHacDk-70" value="Check if there is any online class" style="rhombus;whiteSpace=wrap;html=1;fillColor=#dae8fc;strokeColor=#6c8ebf;rounded=1;gradientColor=#7ea6e0;" vertex="1" parent="1">
          <mxGeometry x="230" y="840" width="220" height="70" as="geometry" />
        </mxCell>
        <mxCell id="OUe5JrY_zWwVkbSHacDk-77" value="" style="edgeStyle=orthogonalEdgeStyle;rounded=0;orthogonalLoop=1;jettySize=auto;html=1;" edge="1" parent="1" source="OUe5JrY_zWwVkbSHacDk-74" target="OUe5JrY_zWwVkbSHacDk-76">
          <mxGeometry relative="1" as="geometry" />
        </mxCell>
        <mxCell id="OUe5JrY_zWwVkbSHacDk-74" value="Offer Isha prayer" style="whiteSpace=wrap;html=1;fillColor=#ffcc99;strokeColor=#36393d;rounded=1;" vertex="1" parent="1">
          <mxGeometry x="280" y="995" width="120" height="60" as="geometry" />
        </mxCell>
        <mxCell id="OUe5JrY_zWwVkbSHacDk-84" value="" style="edgeStyle=orthogonalEdgeStyle;rounded=0;orthogonalLoop=1;jettySize=auto;html=1;" edge="1" parent="1" source="OUe5JrY_zWwVkbSHacDk-76" target="OUe5JrY_zWwVkbSHacDk-83">
          <mxGeometry relative="1" as="geometry" />
        </mxCell>
        <mxCell id="OUe5JrY_zWwVkbSHacDk-76" value="Have Dinner" style="whiteSpace=wrap;html=1;fillColor=#ffcc99;strokeColor=#36393d;rounded=1;" vertex="1" parent="1">
          <mxGeometry x="280" y="1135" width="120" height="60" as="geometry" />
        </mxCell>
        <mxCell id="OUe5JrY_zWwVkbSHacDk-80" style="edgeStyle=orthogonalEdgeStyle;rounded=0;orthogonalLoop=1;jettySize=auto;html=1;exitX=0.5;exitY=1;exitDx=0;exitDy=0;entryX=1;entryY=0.5;entryDx=0;entryDy=0;" edge="1" parent="1" source="OUe5JrY_zWwVkbSHacDk-78" target="OUe5JrY_zWwVkbSHacDk-74">
          <mxGeometry relative="1" as="geometry" />
        </mxCell>
        <mxCell id="OUe5JrY_zWwVkbSHacDk-78" value="Finish online class" style="whiteSpace=wrap;html=1;fillColor=#ffcc99;strokeColor=#36393d;rounded=1;" vertex="1" parent="1">
          <mxGeometry x="580" y="845" width="120" height="60" as="geometry" />
        </mxCell>
        <mxCell id="OUe5JrY_zWwVkbSHacDk-81" value="Yes" style="text;html=1;align=center;verticalAlign=middle;whiteSpace=wrap;rounded=0;" vertex="1" parent="1">
          <mxGeometry x="490" y="845" width="60" height="30" as="geometry" />
        </mxCell>
        <mxCell id="OUe5JrY_zWwVkbSHacDk-82" value="No" style="text;html=1;align=center;verticalAlign=middle;whiteSpace=wrap;rounded=0;" vertex="1" parent="1">
          <mxGeometry x="300" y="930" width="60" height="30" as="geometry" />
        </mxCell>
        <mxCell id="OUe5JrY_zWwVkbSHacDk-86" value="" style="edgeStyle=orthogonalEdgeStyle;rounded=0;orthogonalLoop=1;jettySize=auto;html=1;" edge="1" parent="1" source="OUe5JrY_zWwVkbSHacDk-83" target="OUe5JrY_zWwVkbSHacDk-85">
          <mxGeometry relative="1" as="geometry" />
        </mxCell>
        <mxCell id="OUe5JrY_zWwVkbSHacDk-83" value="Prepare the bed" style="whiteSpace=wrap;html=1;fillColor=#ffcc99;strokeColor=#36393d;rounded=1;" vertex="1" parent="1">
          <mxGeometry x="280" y="1275" width="120" height="60" as="geometry" />
        </mxCell>
        <mxCell id="OUe5JrY_zWwVkbSHacDk-88" style="edgeStyle=orthogonalEdgeStyle;rounded=0;orthogonalLoop=1;jettySize=auto;html=1;exitX=0.5;exitY=1;exitDx=0;exitDy=0;" edge="1" parent="1" source="OUe5JrY_zWwVkbSHacDk-85" target="OUe5JrY_zWwVkbSHacDk-87">
          <mxGeometry relative="1" as="geometry" />
        </mxCell>
        <mxCell id="OUe5JrY_zWwVkbSHacDk-85" value="Go to sleep" style="whiteSpace=wrap;html=1;fillColor=#ffcc99;strokeColor=#36393d;rounded=1;" vertex="1" parent="1">
          <mxGeometry x="280" y="1415" width="120" height="60" as="geometry" />
        </mxCell>
        <mxCell id="OUe5JrY_zWwVkbSHacDk-87" value="" style="ellipse;whiteSpace=wrap;html=1;fillColor=#ffcccc;strokeColor=#36393d;" vertex="1" parent="1">
          <mxGeometry x="280" y="1530" width="120" height="80" as="geometry" />
        </mxCell>
      </root>
    </mxGraphModel>
  </diagram>
</mxfile>
